<svg xmlns="http://www.w3.org/2000/svg" width="64" height="64"><circle cx="32" cy="32" r="32" fill="#185"/><path d="M19.809 44.433q-.424-.544-.545-1.27-.06-.787.182-1.452.242-.666.786-1.09.545-.483 1.331-.483.605 0 1.21.423.605.424 1.331 1.029t1.634 1.33q.908.666 2.057 1.271l1.09.545.06-11.314q-1.15-.545-2.844-1.331-1.694-.787-3.207-1.936-1.512-1.21-2.601-2.783-1.09-1.634-1.09-3.691 0-1.634.666-3.146.666-1.573 1.876-2.844 1.27-1.27 3.085-2.117 1.816-.847 4.115-1.15v-2.057q0-2.057.423-3.57.424-1.573 2.118-1.573 1.633 0 2.057 1.452.423 1.392.423 3.328 0 .666-.06 1.27v1.271q.786.121 2.178.545 1.452.423 2.844 1.089 1.452.605 2.48 1.512 1.029.847 1.029 1.936 0 .908-.666 1.634-.665.665-1.754.665-.726 0-1.574-.302-.847-.303-1.694-.666-.847-.363-1.633-.726-.726-.363-1.21-.544-.06 2.662-.06 5.263.06 2.602 0 5.325 1.935.726 3.871 1.512 1.937.787 3.51 1.936 1.573 1.15 2.54 2.723 1.03 1.573 1.03 3.751 0 2.541-1.03 4.296-.967 1.754-2.54 2.964-1.573 1.15-3.57 1.815-1.936.666-3.872 1.029v2.057q0 1.089.06 2.178-.302 1.15-1.028 1.694-.666.545-1.452.545-1.09 0-1.634-.666-.484-.605-.665-1.573-.182-.968-.182-2.178t-.06-2.3l-.06-.06q-1.876-.484-3.268-1.028-1.331-.545-2.36-1.21-.968-.726-1.754-1.513-.787-.847-1.573-1.815zm14.036-9.015q0 2.481-.06 4.901v4.84q1.028-.12 2.057-.484 1.028-.423 2.42-1.21 1.089-.907 1.331-2.117t-.605-2.42q-1.21-1.029-2.36-1.816-1.089-.847-2.783-1.694zm-4.9-15.79q-.545.18-1.21.362-.666.182-1.331.545-.605.363-1.15.907-.545.545-.847 1.392 0 1.754 1.331 3.146 1.392 1.331 3.207 2.239z" fill="#fff"/></svg>