<svg xmlns="http://www.w3.org/2000/svg" width="64" height="64"><circle cx="32" cy="32" r="32" fill="#185"/><path d="M29.993 50.136q-1.524 0-3.048-.254-1.524-.204-2.844-.56-1.321-.355-2.337-.761-1.016-.457-1.524-.915.101-1.98.508-3.911.457-1.981.863-3.099h2.134l2.59 4.928q.509.406 1.322.812.863.356 2.336.458V33.98q-.101-.05-.254-.05-.101-.051-.203-.153l-1.168-.508q-1.575-.66-3.048-1.575-1.473-.965-2.642-2.184-1.168-1.27-1.88-2.947-.71-1.676-.71-3.81 0-2.082.71-3.708.763-1.676 2.083-2.845 1.321-1.168 3.15-1.88 1.829-.71 3.962-.863v-2.54h3.556v2.49q2.439.1 4.37.558 1.98.457 3.758 1.22 0 .761-.152 1.625-.102.813-.305 1.625-.203.762-.457 1.423-.254.66-.457 1.016h-2.083l-2.59-3.912q-.407-.101-.915-.152-.457-.102-1.169-.102v12.192l1.93.813q1.525.711 3.049 1.626 1.524.863 2.692 2.082 1.22 1.22 1.93 2.845.763 1.626.763 3.861 0 4.013-2.642 6.604-2.642 2.59-7.722 3.251v3.099h-3.556zm7.316-9.043q0-2.184-1.22-3.454-1.219-1.321-3.048-2.286V46.58q2.032-.56 3.15-1.93 1.118-1.372 1.118-3.557zM26.387 21.79q0 2.134 1.168 3.455 1.168 1.27 2.946 2.235V16.81q-1.93.254-3.048 1.575-1.066 1.27-1.066 3.403z" fill="#fff"/></svg>