<?xml version="1.0" encoding="UTF-8" standalone="no"?>
<svg
   width="64"
   height="64"
   version="1.1"
   id="svg1"
   sodipodi:docname="favicon.svg"
   inkscape:version="1.3.2 (091e20ef0f, 2023-11-25)"
   inkscape:export-filename="favicon.192x192.svg"
   inkscape:export-xdpi="288"
   inkscape:export-ydpi="288"
   xmlns:inkscape="http://www.inkscape.org/namespaces/inkscape"
   xmlns:sodipodi="http://sodipodi.sourceforge.net/DTD/sodipodi-0.dtd"
   xmlns="http://www.w3.org/2000/svg"
   xmlns:svg="http://www.w3.org/2000/svg">
  <defs
     id="defs1" />
  <sodipodi:namedview
     id="namedview1"
     pagecolor="#ffffff"
     bordercolor="#000000"
     borderopacity="0.25"
     inkscape:showpageshadow="2"
     inkscape:pageopacity="0.0"
     inkscape:pagecheckerboard="false"
     inkscape:deskcolor="#4b4b4b"
     inkscape:clip-to-page="true"
     inkscape:zoom="5.6568543"
     inkscape:cx="71.859726"
     inkscape:cy="18.208"
     inkscape:window-width="1916"
     inkscape:window-height="1028"
     inkscape:window-x="0"
     inkscape:window-y="24"
     inkscape:window-maximized="1"
     inkscape:current-layer="svg1" />
  <ellipse
     cx="32.007004"
     cy="31.998899"
     fill="#118855"
     id="circle1"
     style="display:inline;stroke:#cfffd0;stroke-width:1.92185;stroke-dasharray:none;stroke-opacity:1"
     rx="30.505505"
     ry="30.500116" />
  <path
     d="m 19.809,44.433 q -0.424,-0.544 -0.545,-1.27 -0.06,-0.787 0.182,-1.452 0.242,-0.666 0.786,-1.09 0.545,-0.483 1.331,-0.483 0.605,0 1.21,0.423 0.605,0.424 1.331,1.029 0.726,0.605 1.634,1.33 0.908,0.666 2.057,1.271 l 1.09,0.545 0.06,-11.314 q -1.15,-0.545 -2.844,-1.331 -1.694,-0.787 -3.207,-1.936 -1.512,-1.21 -2.601,-2.783 -1.09,-1.634 -1.09,-3.691 0,-1.634 0.666,-3.146 0.666,-1.573 1.876,-2.844 1.27,-1.27 3.085,-2.117 1.816,-0.847 4.115,-1.15 v -2.057 q 0,-2.057 0.423,-3.57 0.424,-1.573 2.118,-1.573 1.633,0 2.057,1.452 0.423,1.392 0.423,3.328 0,0.666 -0.06,1.27 v 1.271 q 0.786,0.121 2.178,0.545 1.452,0.423 2.844,1.089 1.452,0.605 2.48,1.512 1.029,0.847 1.029,1.936 0,0.908 -0.666,1.634 -0.665,0.665 -1.754,0.665 -0.726,0 -1.574,-0.302 -0.847,-0.303 -1.694,-0.666 -0.847,-0.363 -1.633,-0.726 -0.726,-0.363 -1.21,-0.544 -0.06,2.662 -0.06,5.263 0.06,2.602 0,5.325 1.935,0.726 3.871,1.512 1.937,0.787 3.51,1.936 1.573,1.15 2.54,2.723 1.03,1.573 1.03,3.751 0,2.541 -1.03,4.296 -0.967,1.754 -2.54,2.964 -1.573,1.15 -3.57,1.815 -1.936,0.666 -3.872,1.029 v 2.057 q 0,1.089 0.06,2.178 -0.302,1.15 -1.028,1.694 -0.666,0.545 -1.452,0.545 -1.09,0 -1.634,-0.666 -0.484,-0.605 -0.665,-1.573 -0.182,-0.968 -0.182,-2.178 0,-1.21 -0.06,-2.3 l -0.06,-0.06 q -1.876,-0.484 -3.268,-1.028 -1.331,-0.545 -2.36,-1.21 -0.968,-0.726 -1.754,-1.513 -0.787,-0.847 -1.573,-1.815 z m 14.036,-9.015 q 0,2.481 -0.06,4.901 v 4.84 q 1.028,-0.12 2.057,-0.484 1.028,-0.423 2.42,-1.21 1.089,-0.907 1.331,-2.117 0.242,-1.21 -0.605,-2.42 -1.21,-1.029 -2.36,-1.816 -1.089,-0.847 -2.783,-1.694 z m -4.9,-15.79 q -0.545,0.18 -1.21,0.362 -0.666,0.182 -1.331,0.545 -0.605,0.363 -1.15,0.907 -0.545,0.545 -0.847,1.392 0,1.754 1.331,3.146 1.392,1.331 3.207,2.239 z"
     fill="#ffffff"
     id="path1"
     style="display:inline" />
</svg>
